<svg fill="#000" xmlns="http://www.w3.org/2000/svg" width="50" height="50" viewBox="0 0 50 50">
    <g transform="translate(-844.000000, -4684.000000) translate(88.000000, 4581.000000) translate(757.000000, 104.000000)">
        <path d="M13.455 25.182h15.58l-4.79 4.79c-.569.567-.569 1.488 0 2.056.284.285.655.426 1.028.426.372 0 .744-.141 1.028-.426l7.273-7.273c.273-.272.426-.642.426-1.028s-.153-.756-.426-1.028L26.3 15.426c-.568-.568-1.489-.568-2.057 0-.568.568-.568 1.489 0 2.057l4.79 4.79h-15.58c-.802 0-1.454.651-1.454 1.454 0 .803.652 1.455 1.455 1.455z"/>
    </g>
</svg>
